# Blender 3.3.1
# www.blender.org
mtllib low poly football.mtl
o foot_ball
v 0.742344 0.283550 -0.350487
v 0.850651 0.000000 -0.175244
v 0.742344 -0.283550 -0.350487
v 0.567100 -0.175244 -0.634038
v 0.567100 0.175244 -0.634038
v -0.567100 0.175244 -0.634038
v -0.567100 -0.175244 -0.634038
v -0.742344 -0.283550 -0.350487
v -0.850651 0.000000 -0.175244
v -0.742344 0.283550 -0.350487
v 0.567100 0.175244 0.634038
v 0.567100 -0.175244 0.634038
v 0.742344 -0.283550 0.350487
v 0.850651 0.000000 0.175244
v 0.742344 0.283550 0.350487
v -0.742344 0.283550 0.350487
v -0.850651 0.000000 0.175244
v -0.742344 -0.283550 0.350487
v -0.567100 -0.175244 0.634038
v -0.567100 0.175244 0.634038
v 0.350487 0.742344 -0.283550
v 0.175244 0.850651 0.000000
v 0.350487 0.742344 0.283550
v 0.634038 0.567100 0.175244
v 0.634038 0.567100 -0.175244
v 0.634038 -0.567100 -0.175244
v 0.634038 -0.567100 0.175244
v 0.350487 -0.742344 0.283550
v 0.175244 -0.850651 0.000000
v 0.350487 -0.742344 -0.283550
v -0.634038 0.567100 -0.175244
v -0.634038 0.567100 0.175244
v -0.350487 0.742344 0.283550
v -0.175244 0.850651 0.000000
v -0.350487 0.742344 -0.283550
v -0.350487 -0.742344 -0.283550
v -0.175244 -0.850651 0.000000
v -0.350487 -0.742344 0.283550
v -0.634038 -0.567100 0.175244
v -0.634038 -0.567100 -0.175244
v 0.283550 0.350487 -0.742344
v 0.000000 0.175244 -0.850651
v -0.283550 0.350487 -0.742344
v -0.175244 0.634038 -0.567100
v 0.175244 0.634038 -0.567100
v 0.175244 0.634038 0.567100
v -0.175244 0.634038 0.567100
v -0.283550 0.350487 0.742344
v 0.000000 0.175244 0.850651
v 0.283550 0.350487 0.742344
v 0.175244 -0.634038 -0.567100
v -0.175244 -0.634038 -0.567100
v -0.283550 -0.350487 -0.742344
v 0.000000 -0.175244 -0.850651
v 0.283550 -0.350487 -0.742344
v 0.283550 -0.350487 0.742344
v 0.000000 -0.175244 0.850651
v -0.283550 -0.350487 0.742344
v -0.175244 -0.634038 0.567100
v 0.175244 -0.634038 0.567100
vn -0.8507 -0.0000 -0.5257
vn 0.8507 -0.0000 0.5257
vn -0.8507 -0.0000 0.5257
vn 0.5257 0.8507 -0.0000
vn 0.5257 -0.8507 -0.0000
vn -0.5257 0.8507 -0.0000
vn -0.5257 -0.8507 -0.0000
vn -0.0000 0.5257 -0.8507
vn -0.0000 0.5257 0.8507
vn -0.0000 -0.5257 -0.8507
vn -0.0000 -0.5257 0.8507
vn -0.5774 -0.5774 -0.5774
vn 0.5774 0.5774 0.5774
vn -0.9342 0.3568 -0.0000
vn 0.9342 -0.3568 -0.0000
vn -0.5774 -0.5774 0.5774
vn 0.5774 -0.5774 -0.5774
vn 0.5774 -0.5774 0.5774
vn -0.5774 0.5774 0.5774
vn -0.0000 0.9342 0.3568
vn -0.5774 0.5774 -0.5774
vn 0.9342 0.3568 -0.0000
vn -0.0000 -0.9342 0.3568
vn -0.0000 0.9342 -0.3568
vn 0.3568 -0.0000 -0.9342
vn 0.3568 -0.0000 0.9342
vn 0.5774 0.5774 -0.5774
vn -0.3568 -0.0000 0.9342
vn 0.8507 -0.0000 -0.5257
vn -0.3568 -0.0000 -0.9342
vn -0.0000 -0.9342 -0.3568
vn -0.9342 -0.3568 -0.0000
vt 0.077113 0.000497
vt 0.694015 0.533295
vt 0.428988 0.783792
vt 0.000497 0.311130
vt 0.000497 0.044731
vt 0.480988 0.712220
vt 0.077113 0.355365
vt 0.770631 0.044731
vt 0.565127 0.739558
vt 0.694015 0.000497
vt 0.000497 0.400592
vt 0.565127 0.828026
vt 0.000497 0.489061
vt 0.617399 0.489061
vt 0.480988 0.855365
vt 0.291855 0.783792
vt 0.694015 0.178428
vt 0.231338 0.000497
vt 0.343856 0.712220
vt 0.770631 0.578523
vt 0.154722 0.044731
vt 0.427994 0.739558
vt 0.694015 0.534289
vt 0.539790 0.000497
vt 0.427994 0.828026
vt 0.154722 0.311130
vt 0.463174 0.044731
vt 0.343856 0.855365
vt 0.231338 0.355365
vt 0.770631 0.222662
vt 0.892386 0.712220
vt 0.385564 0.711226
vt 0.462180 0.222662
vt 0.976525 0.739558
vt 0.154722 0.578523
vt 0.385564 0.178428
vt 0.976525 0.828026
vt 0.077113 0.178428
vt 0.154722 0.666992
vt 0.892386 0.855365
vt 0.000497 0.222662
vt 0.000497 0.133200
vt 0.840386 0.783792
vt 0.308948 0.666992
vt 0.077113 0.177434
vt 0.823625 0.432913
vt 0.231338 0.178428
vt 0.000497 0.666992
vt 0.907764 0.460251
vt 0.154722 0.222662
vt 0.463174 0.133200
vt 0.907764 0.548720
vt 0.463174 0.666992
vt 0.539790 0.177434
vt 0.823625 0.576058
vt 0.539789 0.711226
vt 0.385564 0.000497
vt 0.771625 0.504485
vt 0.000497 0.578523
vt 0.308948 0.044731
vt 0.618121 0.712220
vt 0.154722 0.489061
vt 0.770631 0.400592
vt 0.702260 0.739558
vt 0.539790 0.355365
vt 0.231338 0.533295
vt 0.702260 0.828026
vt 0.385564 0.534289
vt 0.616406 0.311130
vt 0.618121 0.855365
vt 0.308948 0.578523
vt 0.153729 0.133200
vt 0.566121 0.783792
vt 0.153729 0.044731
vt 0.770631 0.489061
vt 0.771625 0.360347
vt 0.153729 0.311130
vt 0.770631 0.133200
vt 0.823625 0.288774
vt 0.153729 0.222662
vt 0.231338 0.711226
vt 0.907764 0.316113
vt 0.307954 0.666992
vt 0.385564 0.533295
vt 0.907764 0.404581
vt 0.462180 0.489061
vt 0.616406 0.489061
vt 0.823625 0.431919
vt 0.694015 0.177434
vt 0.616406 0.400592
vt 0.907764 0.027835
vt 0.307954 0.311130
vt 0.770631 0.311130
vt 0.907764 0.116304
vt 0.307954 0.222662
vt 0.077113 0.711226
vt 0.823625 0.143642
vt 0.153729 0.666992
vt 0.463174 0.222662
vt 0.771625 0.072069
vt 0.463174 0.311130
vt 0.307954 0.489061
vt 0.823625 0.000497
vt 0.694015 0.355364
vt 0.307954 0.400592
vt 0.052497 0.855365
vt 0.617399 0.666992
vt 0.463174 0.489061
vt 0.000497 0.783792
vt 0.462180 0.400592
vt 0.539790 0.533295
vt 0.052497 0.712219
vt 0.539790 0.534289
vt 0.385564 0.356358
vt 0.136636 0.739558
vt 0.463174 0.578523
vt 0.616406 0.133200
vt 0.136636 0.828026
vt 0.617399 0.578523
vt 0.616406 0.044731
vt 0.823625 0.144636
vt 0.077113 0.533295
vt 0.617399 0.400592
vt 0.907764 0.171974
vt 0.153729 0.489061
vt 0.307954 0.133200
vt 0.907764 0.260442
vt 0.617399 0.222662
vt 0.307954 0.044731
vt 0.823625 0.287781
vt 0.617399 0.311130
vt 0.231338 0.356358
vt 0.771625 0.216208
vt 0.154722 0.400592
vt 0.694015 0.356358
vt 0.052497 0.856358
vt 0.462180 0.578523
vt 0.616406 0.222662
vt 0.136636 0.883696
vt 0.153729 0.578523
vt 0.539790 0.178428
vt 0.136636 0.972165
vt 0.077113 0.534289
vt 0.308948 0.133200
vt 0.052497 0.999503
vt 0.385564 0.355365
vt 0.385564 0.177434
vt 0.000497 0.927931
vt 0.462180 0.666992
vt 0.462180 0.311130
vt 0.703253 0.783792
vt 0.617399 0.133200
vt 0.539790 0.356358
vt 0.755254 0.712220
vt 0.694015 0.711226
vt 0.463174 0.400592
vt 0.839392 0.739558
vt 0.770631 0.666992
vt 0.154722 0.133200
vt 0.839392 0.828026
vt 0.153729 0.400592
vt 0.231338 0.177434
vt 0.755254 0.855365
vt 0.617399 0.044731
vt 0.077113 0.356358
vt 0.154722 0.783792
vt 0.231338 0.534289
vt 0.308948 0.222662
vt 0.206723 0.712220
vt 0.308948 0.311130
vt 0.462180 0.133200
vt 0.290861 0.739558
vt 0.616406 0.666992
vt 0.462180 0.044731
vt 0.290861 0.828026
vt 0.616406 0.578523
vt 0.308948 0.400592
vt 0.206723 0.855365
vt 0.307954 0.578523
vt 0.308948 0.489061
s 0
usemtl Material.001
f 7/19/1 8/22/1 9/25/1 10/28/1 6/16/1
f 12/34/2 13/37/2 14/40/2 15/43/2 11/31/2
f 17/49/3 18/52/3 19/55/3 20/58/3 16/46/3
f 22/64/4 23/67/4 24/70/4 25/73/4 21/61/4
f 27/79/5 28/82/5 29/85/5 30/88/5 26/76/5
f 32/94/6 33/97/6 34/100/6 35/103/6 31/91/6
f 37/109/7 38/112/7 39/115/7 40/118/7 36/106/7
f 42/124/8 43/127/8 44/130/8 45/133/8 41/121/8
f 47/139/9 48/142/9 49/145/9 50/148/9 46/136/9
f 52/154/10 53/157/10 54/160/10 55/163/10 51/151/10
f 57/169/11 58/172/11 59/175/11 60/178/11 56/166/11
f 7/20/12 53/158/12 52/155/12 36/107/12 40/119/12 8/23/12
f 15/44/13 24/71/13 23/68/13 46/137/13 50/149/13 11/32/13
f 31/92/14 10/29/14 9/26/14 17/50/14 16/47/14 32/95/14
f 26/77/15 3/7/15 2/4/15 14/41/15 13/38/15 27/80/15
f 18/53/16 39/116/16 38/113/16 59/176/16 58/173/16 19/56/16
f 3/8/17 26/78/17 30/89/17 51/152/17 55/164/17 4/10/17
f 12/35/18 56/167/18 60/179/18 28/83/18 27/81/18 13/39/18
f 20/59/19 48/143/19 47/140/19 33/98/19 32/96/19 16/48/19
f 46/138/20 23/69/20 22/65/20 34/101/20 33/99/20 47/141/20
f 10/30/21 31/93/21 35/104/21 44/131/21 43/128/21 6/17/21
f 24/72/22 15/45/22 14/42/22 2/5/22 1/1/22 25/74/22
f 59/177/23 38/114/23 37/110/23 29/86/23 28/84/23 60/180/23
f 44/132/24 35/105/24 34/102/24 22/66/24 21/62/24 45/134/24
f 4/11/25 55/165/25 54/161/25 42/125/25 41/122/25 5/13/25
f 11/33/26 50/150/26 49/146/26 57/170/26 56/168/26 12/36/26
f 5/14/27 41/123/27 45/135/27 21/63/27 25/75/27 1/2/27
f 19/57/28 58/174/28 57/171/28 49/147/28 48/144/28 20/60/28
f 2/6/29 3/9/29 4/12/29 5/15/29 1/3/29
f 6/18/30 43/129/30 42/126/30 54/162/30 53/159/30 7/21/30
f 51/153/31 30/90/31 29/87/31 37/111/31 36/108/31 52/156/31
f 39/117/32 18/54/32 17/51/32 9/27/32 8/24/32 40/120/32
