<?xml version="1.0" encoding="utf-8"?>
<!-- Generator: Adobe Illustrator 25.0.1, SVG Export Plug-In . SVG Version: 6.00 Build 0)  -->
<svg version="1.1" id="Layer_1" xmlns="http://www.w3.org/2000/svg" xmlns:xlink="http://www.w3.org/1999/xlink" x="0px" y="0px"
	 viewBox="0 0 1920 1080" style="enable-background:new 0 0 1920 1080;" xml:space="preserve">
<g>
	<path d="M808,467.8c-2.4,0-4.3,0-6.8,0c0,1.6,0,3,0,4.4c0,28.1,0,56.2,0,84.3c0,2.4-0.1,5-0.6,7.3c-1.5,6.5-7.4,10.5-14.3,10.2
		c-7.3-0.4-12.4-5-13.4-12.2c-0.2-1.2-0.2-2.5-0.2-3.7c0-32.8-0.1-65.6,0-98.4c0-20.9,13-37.4,32.7-42c3.5-0.8,7.1-1.1,10.6-1.1
		c21.9-0.1,43.9-0.1,65.8,0c25.4,0.1,43.9,18.5,43.9,43.9c0.1,32.7,0,65.4,0,98.1c0,10.8-7.4,17.3-17.2,15.3
		c-6.1-1.2-10.5-6.1-11-12.3c-0.1-1.7-0.1-3.4-0.1-5c0-28.1,0-56.2,0-84.3c0-1.3,0-2.7,0-4.3c-2.2,0-4.1,0-6.6,0c0,1.2,0,2.6,0,4
		c0,81.6,0,163.2,0,244.8c0,7-1.3,13.5-7.4,17.8c-6.3,4.4-13.1,4.9-20,1.8c-6.7-2.9-10-8.3-10.7-15.5c-0.2-1.6-0.1-3.1-0.1-4.7
		c0-46.2,0-92.5,0-138.7c0-1.3,0-2.7,0-4.2c-2.1,0-4.1,0-6.6,0c0,1.3,0,2.7,0,4.1c0,46.3,0,92.7-0.1,139c0,3.7-0.4,7.7-1.8,11.1
		c-3,7.6-12.2,12-20.6,10.4c-9-1.6-14.7-8-15.3-17c-0.1-2-0.2-4-0.2-6c0-80.8,0-161.7,0-242.5C808,471.1,808,469.5,808,467.8z"/>
	<path d="M847.7,409.3c-17.9-0.1-32.7-14.9-32.6-32.7c0.1-17.7,15.1-32.6,32.9-32.6c17.8,0,32.7,15.1,32.6,32.8
		C880.4,394.7,865.6,409.4,847.7,409.3z"/>
</g>
</svg>
