{
  "header": {
    "PPQ": 96,
    "timeSignature": [
      4,
      4
    ],
    "bpm": 120,
    "name": ""
  },
  "tempo": [],
  "timeSignature": [
    {
      "absoluteTime": 0,
      "seconds": 0,
      "numerator": 4,
      "denominator": 2,
      "click": 36,
      "notesQ": 8
    },
    {
      "absoluteTime": 0,
      "seconds": 0,
      "numerator": 4,
      "denominator": 2,
      "click": 36,
      "notesQ": 8
    }
  ],
  "startTime": 4,
  "duration": 122.95833333333327,
  "tracks": [
    {
      "startTime": 4,
      "duration": 122.95833333333327,
      "length": 304,
      "notes": [
        {
          "name": "G4",
          "midi": 67,
          "time": 4,
          "velocity": 0.7874015748031497,
          "duration": 0.15104166666666696
        },
        {
          "name": "E4",
          "midi": 64,
          "time": 4.25,
          "velocity": 0.7874015748031497,
          "duration": 0.15104166666666696
        },
        {
          "name": "F4",
          "midi": 65,
          "time": 4.5,
          "velocity": 0.7874015748031497,
          "duration": 0.171875
        },
        {
          "name": "E4",
          "midi": 64,
          "time": 5.5,
          "velocity": 0.7874015748031497,
          "duration": 0.140625
        },
        {
          "name": "G4",
          "midi": 67,
          "time": 5.75,
          "velocity": 0.7874015748031497,
          "duration": 0.140625
        },
        {
          "name": "F4",
          "midi": 65,
          "time": 6,
          "velocity": 0.7874015748031497,
          "duration": 0.171875
        },
        {
          "name": "E4",
          "midi": 64,
          "time": 6.25,
          "velocity": 0.7874015748031497,
          "duration": 0.13541666666666696
        },
        {
          "name": "F4",
          "midi": 65,
          "time": 6.5,
          "velocity": 0.7874015748031497,
          "duration": 0.15625
        },
        {
          "name": "E4",
          "midi": 64,
          "time": 7.5,
          "velocity": 0.7874015748031497,
          "duration": 0.078125
        },
        {
          "name": "E4",
          "midi": 64,
          "time": 7.625,
          "velocity": 0.7874015748031497,
          "duration": 0.09375
        },
        {
          "name": "E4",
          "midi": 64,
          "time": 7.75,
          "velocity": 0.7874015748031497,
          "duration": 0.125
        },
        {
          "name": "G4",
          "midi": 67,
          "time": 8,
          "velocity": 0.7874015748031497,
          "duration": 0.13020833333333393
        },
        {
          "name": "E4",
          "midi": 64,
          "time": 8.25,
          "velocity": 0.7874015748031497,
          "duration": 0.13020833333333393
        },
        {
          "name": "F4",
          "midi": 65,
          "time": 8.5,
          "velocity": 0.7874015748031497,
          "duration": 0.13020833333333393
        },
        {
          "name": "E4",
          "midi": 64,
          "time": 9.5,
          "velocity": 0.7874015748031497,
          "duration": 0.09375
        },
        {
          "name": "E4",
          "midi": 64,
          "time": 9.625,
          "velocity": 0.7874015748031497,
          "duration": 0.09375
        },
        {
          "name": "E4",
          "midi": 64,
          "time": 9.75,
          "velocity": 0.7874015748031497,
          "duration": 0.07291666666666607
        },
        {
          "name": "E4",
          "midi": 64,
          "time": 10,
          "velocity": 0.7874015748031497,
          "duration": 0.13541666666666607
        },
        {
          "name": "G4",
          "midi": 67,
          "time": 10.25,
          "velocity": 0.7874015748031497,
          "duration": 0.13541666666666607
        },
        {
          "name": "F4",
          "midi": 65,
          "time": 10.5,
          "velocity": 0.7874015748031497,
          "duration": 0.140625
        },
        {
          "name": "E4",
          "midi": 64,
          "time": 11.25,
          "velocity": 0.7874015748031497,
          "duration": 0.109375
        },
        {
          "name": "F4",
          "midi": 65,
          "time": 11.5,
          "velocity": 0.7874015748031497,
          "duration": 0.09895833333333393
        },
        {
          "name": "G4",
          "midi": 67,
          "time": 11.75,
          "velocity": 0.7874015748031497,
          "duration": 0.078125
        },
        {
          "name": "G4",
          "midi": 67,
          "time": 12,
          "velocity": 0.7874015748031497,
          "duration": 0.17708333333333393
        },
        {
          "name": "E4",
          "midi": 64,
          "time": 12.25,
          "velocity": 0.7874015748031497,
          "duration": 0.125
        },
        {
          "name": "F4",
          "midi": 65,
          "time": 12.5,
          "velocity": 0.7874015748031497,
          "duration": 0.125
        },
        {
          "name": "E4",
          "midi": 64,
          "time": 13.5,
          "velocity": 0.7874015748031497,
          "duration": 0.125
        },
        {
          "name": "G4",
          "midi": 67,
          "time": 13.75,
          "velocity": 0.7874015748031497,
          "duration": 0.13020833333333393
        },
        {
          "name": "G4",
          "midi": 67,
          "time": 14,
          "velocity": 0.7874015748031497,
          "duration": 0.11458333333333393
        },
        {
          "name": "F4",
          "midi": 65,
          "time": 14.25,
          "velocity": 0.7874015748031497,
          "duration": 0.09375
        },
        {
          "name": "E4",
          "midi": 64,
          "time": 14.5,
          "velocity": 0.7874015748031497,
          "duration": 0.11979166666666607
        },
        {
          "name": "E4",
          "midi": 64,
          "time": 15.5,
          "velocity": 0.7874015748031497,
          "duration": 0.09375
        },
        {
          "name": "E4",
          "midi": 64,
          "time": 15.625,
          "velocity": 0.7874015748031497,
          "duration": 0.09375
        },
        {
          "name": "E4",
          "midi": 64,
          "time": 15.75,
          "velocity": 0.7874015748031497,
          "duration": 0.09375
        },
        {
          "name": "G4",
          "midi": 67,
          "time": 16,
          "velocity": 0.7874015748031497,
          "duration": 0.11458333333333215
        },
        {
          "name": "E4",
          "midi": 64,
          "time": 16.25,
          "velocity": 0.7874015748031497,
          "duration": 0.09375
        },
        {
          "name": "F4",
          "midi": 65,
          "time": 16.5,
          "velocity": 0.7874015748031497,
          "duration": 0.09375
        },
        {
          "name": "E4",
          "midi": 64,
          "time": 17.25,
          "velocity": 0.7874015748031497,
          "duration": 0.08333333333333215
        },
        {
          "name": "E4",
          "midi": 64,
          "time": 17.5,
          "velocity": 0.7874015748031497,
          "duration": 0.08333333333333215
        },
        {
          "name": "E4",
          "midi": 64,
          "time": 17.625,
          "velocity": 0.7874015748031497,
          "duration": 0.08333333333333215
        },
        {
          "name": "E4",
          "midi": 64,
          "time": 17.75,
          "velocity": 0.7874015748031497,
          "duration": 0.10416666666666785
        },
        {
          "name": "F4",
          "midi": 65,
          "time": 18,
          "velocity": 0.7874015748031497,
          "duration": 0.171875
        },
        {
          "name": "G4",
          "midi": 67,
          "time": 18.25,
          "velocity": 0.7874015748031497,
          "duration": 0.203125
        },
        {
          "name": "F4",
          "midi": 65,
          "time": 18.5,
          "velocity": 0.7874015748031497,
          "duration": 0.11979166666666785
        },
        {
          "name": "E4",
          "midi": 64,
          "time": 19.25,
          "velocity": 0.7874015748031497,
          "duration": 0.08854166666666785
        },
        {
          "name": "F4",
          "midi": 65,
          "time": 19.5,
          "velocity": 0.7874015748031497,
          "duration": 0.09895833333333215
        },
        {
          "name": "G4",
          "midi": 67,
          "time": 19.75,
          "velocity": 0.7874015748031497,
          "duration": 0.10416666666666785
        },
        {
          "name": "E4",
          "midi": 64,
          "time": 20.5,
          "velocity": 0.7874015748031497,
          "duration": 0.09375
        },
        {
          "name": "E4",
          "midi": 64,
          "time": 20.75,
          "velocity": 0.7874015748031497,
          "duration": 0.08333333333333215
        },
        {
          "name": "E4",
          "midi": 64,
          "time": 21,
          "velocity": 0.7874015748031497,
          "duration": 0.140625
        },
        {
          "name": "E4",
          "midi": 64,
          "time": 21.25,
          "velocity": 0.7874015748031497,
          "duration": 0.21875
        },
        {
          "name": "E4",
          "midi": 64,
          "time": 21.75,
          "velocity": 0.7874015748031497,
          "duration": 0.27604166666666785
        },
        {
          "name": "E4",
          "midi": 64,
          "time": 22.25,
          "velocity": 0.7874015748031497,
          "duration": 0.06770833333333215
        },
        {
          "name": "E4",
          "midi": 64,
          "time": 22.5,
          "velocity": 0.7874015748031497,
          "duration": 0.3125
        },
        {
          "name": "G4",
          "midi": 67,
          "time": 23,
          "velocity": 0.7874015748031497,
          "duration": 0.27604166666666785
        },
        {
          "name": "F4",
          "midi": 65,
          "time": 23.25,
          "velocity": 0.7874015748031497,
          "duration": 0.25520833333333215
        },
        {
          "name": "E4",
          "midi": 64,
          "time": 23.5,
          "velocity": 0.7874015748031497,
          "duration": 0.09375
        },
        {
          "name": "E4",
          "midi": 64,
          "time": 23.75,
          "velocity": 0.7874015748031497,
          "duration": 0.28645833333333215
        },
        {
          "name": "E4",
          "midi": 64,
          "time": 24.25,
          "velocity": 0.7874015748031497,
          "duration": 0.08333333333333215
        },
        {
          "name": "E4",
          "midi": 64,
          "time": 24.5,
          "velocity": 0.7874015748031497,
          "duration": 0.22395833333333215
        },
        {
          "name": "E4",
          "midi": 64,
          "time": 25,
          "velocity": 0.7874015748031497,
          "duration": 0.30729166666666785
        },
        {
          "name": "E4",
          "midi": 64,
          "time": 25.5,
          "velocity": 0.7874015748031497,
          "duration": 0.05729166666666785
        },
        {
          "name": "E4",
          "midi": 64,
          "time": 25.75,
          "velocity": 0.7874015748031497,
          "duration": 0.328125
        },
        {
          "name": "E4",
          "midi": 64,
          "time": 26.25,
          "velocity": 0.7874015748031497,
          "duration": 0.328125
        },
        {
          "name": "E4",
          "midi": 64,
          "time": 26.75,
          "velocity": 0.7874015748031497,
          "duration": 0.359375
        },
        {
          "name": "E4",
          "midi": 64,
          "time": 28.5,
          "velocity": 0.7874015748031497,
          "duration": 0.0625
        },
        {
          "name": "E4",
          "midi": 64,
          "time": 28.75,
          "velocity": 0.7874015748031497,
          "duration": 0.09895833333333215
        },
        {
          "name": "E4",
          "midi": 64,
          "time": 29,
          "velocity": 0.7874015748031497,
          "duration": 0.08333333333333215
        },
        {
          "name": "E4",
          "midi": 64,
          "time": 29.25,
          "velocity": 0.7874015748031497,
          "duration": 0.33854166666666785
        },
        {
          "name": "G4",
          "midi": 67,
          "time": 29.75,
          "velocity": 0.7874015748031497,
          "duration": 0.265625
        },
        {
          "name": "F4",
          "midi": 65,
          "time": 30.25,
          "velocity": 0.7874015748031497,
          "duration": 0.1875
        },
        {
          "name": "E4",
          "midi": 64,
          "time": 30.5,
          "velocity": 0.7874015748031497,
          "duration": 0.296875
        },
        {
          "name": "G4",
          "midi": 67,
          "time": 31,
          "velocity": 0.7874015748031497,
          "duration": 0.24479166666666785
        },
        {
          "name": "F4",
          "midi": 65,
          "time": 31.25,
          "velocity": 0.7874015748031497,
          "duration": 0.22916666666666785
        },
        {
          "name": "E4",
          "midi": 64,
          "time": 31.5,
          "velocity": 0.7874015748031497,
          "duration": 0.09375
        },
        {
          "name": "E4",
          "midi": 64,
          "time": 31.75,
          "velocity": 0.7874015748031497,
          "duration": 0.22395833333333215
        },
        {
          "name": "E4",
          "midi": 64,
          "time": 32.25,
          "velocity": 0.7874015748031497,
          "duration": 0.1770833333333357
        },
        {
          "name": "E4",
          "midi": 64,
          "time": 32.5,
          "velocity": 0.7874015748031497,
          "duration": 0.2864583333333357
        },
        {
          "name": "E4",
          "midi": 64,
          "time": 33.25,
          "velocity": 0.7874015748031497,
          "duration": 0.0833333333333357
        },
        {
          "name": "E4",
          "midi": 64,
          "time": 33.5,
          "velocity": 0.7874015748031497,
          "duration": 0.0833333333333357
        },
        {
          "name": "E4",
          "midi": 64,
          "time": 33.625,
          "velocity": 0.7874015748031497,
          "duration": 0.0833333333333357
        },
        {
          "name": "E4",
          "midi": 64,
          "time": 33.75,
          "velocity": 0.7874015748031497,
          "duration": 0.1041666666666643
        },
        {
          "name": "F4",
          "midi": 65,
          "time": 34,
          "velocity": 0.7874015748031497,
          "duration": 0.171875
        },
        {
          "name": "G4",
          "midi": 67,
          "time": 34.25,
          "velocity": 0.7874015748031497,
          "duration": 0.203125
        },
        {
          "name": "F4",
          "midi": 65,
          "time": 34.5,
          "velocity": 0.7874015748031497,
          "duration": 0.1197916666666643
        },
        {
          "name": "E4",
          "midi": 64,
          "time": 35.25,
          "velocity": 0.7874015748031497,
          "duration": 0.0885416666666643
        },
        {
          "name": "F4",
          "midi": 65,
          "time": 35.5,
          "velocity": 0.7874015748031497,
          "duration": 0.0989583333333357
        },
        {
          "name": "G4",
          "midi": 67,
          "time": 35.75,
          "velocity": 0.7874015748031497,
          "duration": 0.1041666666666643
        },
        {
          "name": "G4",
          "midi": 67,
          "time": 44,
          "velocity": 0.7874015748031497,
          "duration": 0.1510416666666643
        },
        {
          "name": "E4",
          "midi": 64,
          "time": 44.25,
          "velocity": 0.7874015748031497,
          "duration": 0.1510416666666643
        },
        {
          "name": "F4",
          "midi": 65,
          "time": 44.5,
          "velocity": 0.7874015748031497,
          "duration": 0.171875
        },
        {
          "name": "E4",
          "midi": 64,
          "time": 45.5,
          "velocity": 0.7874015748031497,
          "duration": 0.140625
        },
        {
          "name": "G4",
          "midi": 67,
          "time": 45.75,
          "velocity": 0.7874015748031497,
          "duration": 0.140625
        },
        {
          "name": "F4",
          "midi": 65,
          "time": 46,
          "velocity": 0.7874015748031497,
          "duration": 0.171875
        },
        {
          "name": "E4",
          "midi": 64,
          "time": 46.25,
          "velocity": 0.7874015748031497,
          "duration": 0.1354166666666643
        },
        {
          "name": "F4",
          "midi": 65,
          "time": 46.5,
          "velocity": 0.7874015748031497,
          "duration": 0.15625
        },
        {
          "name": "E4",
          "midi": 64,
          "time": 47.5,
          "velocity": 0.7874015748031497,
          "duration": 0.078125
        },
        {
          "name": "E4",
          "midi": 64,
          "time": 47.625,
          "velocity": 0.7874015748031497,
          "duration": 0.09375
        },
        {
          "name": "E4",
          "midi": 64,
          "time": 47.75,
          "velocity": 0.7874015748031497,
          "duration": 0.125
        },
        {
          "name": "G4",
          "midi": 67,
          "time": 48,
          "velocity": 0.7874015748031497,
          "duration": 0.1302083333333357
        },
        {
          "name": "E4",
          "midi": 64,
          "time": 48.25,
          "velocity": 0.7874015748031497,
          "duration": 0.1302083333333357
        },
        {
          "name": "F4",
          "midi": 65,
          "time": 48.5,
          "velocity": 0.7874015748031497,
          "duration": 0.1302083333333357
        },
        {
          "name": "E4",
          "midi": 64,
          "time": 49.5,
          "velocity": 0.7874015748031497,
          "duration": 0.09375
        },
        {
          "name": "E4",
          "midi": 64,
          "time": 49.625,
          "velocity": 0.7874015748031497,
          "duration": 0.09375
        },
        {
          "name": "E4",
          "midi": 64,
          "time": 49.75,
          "velocity": 0.7874015748031497,
          "duration": 0.0729166666666643
        },
        {
          "name": "E4",
          "midi": 64,
          "time": 50,
          "velocity": 0.7874015748031497,
          "duration": 0.1354166666666643
        },
        {
          "name": "G4",
          "midi": 67,
          "time": 50.25,
          "velocity": 0.7874015748031497,
          "duration": 0.1354166666666643
        },
        {
          "name": "F4",
          "midi": 65,
          "time": 50.5,
          "velocity": 0.7874015748031497,
          "duration": 0.140625
        },
        {
          "name": "E4",
          "midi": 64,
          "time": 51.25,
          "velocity": 0.7874015748031497,
          "duration": 0.109375
        },
        {
          "name": "F4",
          "midi": 65,
          "time": 51.5,
          "velocity": 0.7874015748031497,
          "duration": 0.0989583333333357
        },
        {
          "name": "G4",
          "midi": 67,
          "time": 51.75,
          "velocity": 0.7874015748031497,
          "duration": 0.078125
        },
        {
          "name": "G4",
          "midi": 67,
          "time": 52,
          "velocity": 0.7874015748031497,
          "duration": 0.1770833333333357
        },
        {
          "name": "E4",
          "midi": 64,
          "time": 52.25,
          "velocity": 0.7874015748031497,
          "duration": 0.125
        },
        {
          "name": "F4",
          "midi": 65,
          "time": 52.5,
          "velocity": 0.7874015748031497,
          "duration": 0.125
        },
        {
          "name": "E4",
          "midi": 64,
          "time": 53.5,
          "velocity": 0.7874015748031497,
          "duration": 0.125
        },
        {
          "name": "G4",
          "midi": 67,
          "time": 53.75,
          "velocity": 0.7874015748031497,
          "duration": 0.1302083333333357
        },
        {
          "name": "G4",
          "midi": 67,
          "time": 54,
          "velocity": 0.7874015748031497,
          "duration": 0.1145833333333357
        },
        {
          "name": "F4",
          "midi": 65,
          "time": 54.25,
          "velocity": 0.7874015748031497,
          "duration": 0.09375
        },
        {
          "name": "E4",
          "midi": 64,
          "time": 54.5,
          "velocity": 0.7874015748031497,
          "duration": 0.1197916666666643
        },
        {
          "name": "E4",
          "midi": 64,
          "time": 55.5,
          "velocity": 0.7874015748031497,
          "duration": 0.09375
        },
        {
          "name": "E4",
          "midi": 64,
          "time": 55.625,
          "velocity": 0.7874015748031497,
          "duration": 0.09375
        },
        {
          "name": "E4",
          "midi": 64,
          "time": 55.75,
          "velocity": 0.7874015748031497,
          "duration": 0.09375
        },
        {
          "name": "G4",
          "midi": 67,
          "time": 56,
          "velocity": 0.7874015748031497,
          "duration": 0.1145833333333357
        },
        {
          "name": "E4",
          "midi": 64,
          "time": 56.25,
          "velocity": 0.7874015748031497,
          "duration": 0.09375
        },
        {
          "name": "F4",
          "midi": 65,
          "time": 56.5,
          "velocity": 0.7874015748031497,
          "duration": 0.09375
        },
        {
          "name": "E4",
          "midi": 64,
          "time": 57.25,
          "velocity": 0.7874015748031497,
          "duration": 0.0833333333333357
        },
        {
          "name": "E4",
          "midi": 64,
          "time": 57.5,
          "velocity": 0.7874015748031497,
          "duration": 0.0833333333333357
        },
        {
          "name": "E4",
          "midi": 64,
          "time": 57.625,
          "velocity": 0.7874015748031497,
          "duration": 0.0833333333333357
        },
        {
          "name": "E4",
          "midi": 64,
          "time": 57.75,
          "velocity": 0.7874015748031497,
          "duration": 0.1041666666666643
        },
        {
          "name": "F4",
          "midi": 65,
          "time": 58,
          "velocity": 0.7874015748031497,
          "duration": 0.171875
        },
        {
          "name": "G4",
          "midi": 67,
          "time": 58.25,
          "velocity": 0.7874015748031497,
          "duration": 0.203125
        },
        {
          "name": "F4",
          "midi": 65,
          "time": 58.5,
          "velocity": 0.7874015748031497,
          "duration": 0.1197916666666643
        },
        {
          "name": "E4",
          "midi": 64,
          "time": 59.25,
          "velocity": 0.7874015748031497,
          "duration": 0.0885416666666643
        },
        {
          "name": "F4",
          "midi": 65,
          "time": 59.5,
          "velocity": 0.7874015748031497,
          "duration": 0.0989583333333357
        },
        {
          "name": "G4",
          "midi": 67,
          "time": 59.75,
          "velocity": 0.7874015748031497,
          "duration": 0.1041666666666643
        },
        {
          "name": "G4",
          "midi": 67,
          "time": 60,
          "velocity": 0.7874015748031497,
          "duration": 0.1510416666666643
        },
        {
          "name": "E4",
          "midi": 64,
          "time": 60.25,
          "velocity": 0.7874015748031497,
          "duration": 0.1510416666666643
        },
        {
          "name": "F4",
          "midi": 65,
          "time": 60.5,
          "velocity": 0.7874015748031497,
          "duration": 0.171875
        },
        {
          "name": "E4",
          "midi": 64,
          "time": 61.5,
          "velocity": 0.7874015748031497,
          "duration": 0.140625
        },
        {
          "name": "G4",
          "midi": 67,
          "time": 61.75,
          "velocity": 0.7874015748031497,
          "duration": 0.140625
        },
        {
          "name": "F4",
          "midi": 65,
          "time": 62,
          "velocity": 0.7874015748031497,
          "duration": 0.171875
        },
        {
          "name": "E4",
          "midi": 64,
          "time": 62.25,
          "velocity": 0.7874015748031497,
          "duration": 0.1354166666666643
        },
        {
          "name": "F4",
          "midi": 65,
          "time": 62.5,
          "velocity": 0.7874015748031497,
          "duration": 0.15625
        },
        {
          "name": "E4",
          "midi": 64,
          "time": 63.5,
          "velocity": 0.7874015748031497,
          "duration": 0.078125
        },
        {
          "name": "E4",
          "midi": 64,
          "time": 63.625,
          "velocity": 0.7874015748031497,
          "duration": 0.09375
        },
        {
          "name": "E4",
          "midi": 64,
          "time": 63.75,
          "velocity": 0.7874015748031497,
          "duration": 0.125
        },
        {
          "name": "G4",
          "midi": 67,
          "time": 64,
          "velocity": 0.7874015748031497,
          "duration": 0.1302083333333286
        },
        {
          "name": "E4",
          "midi": 64,
          "time": 64.25,
          "velocity": 0.7874015748031497,
          "duration": 0.1302083333333286
        },
        {
          "name": "F4",
          "midi": 65,
          "time": 64.5,
          "velocity": 0.7874015748031497,
          "duration": 0.1302083333333286
        },
        {
          "name": "E4",
          "midi": 64,
          "time": 65.5,
          "velocity": 0.7874015748031497,
          "duration": 0.09375
        },
        {
          "name": "E4",
          "midi": 64,
          "time": 65.625,
          "velocity": 0.7874015748031497,
          "duration": 0.09375
        },
        {
          "name": "E4",
          "midi": 64,
          "time": 65.75,
          "velocity": 0.7874015748031497,
          "duration": 0.0729166666666714
        },
        {
          "name": "E4",
          "midi": 64,
          "time": 66,
          "velocity": 0.7874015748031497,
          "duration": 0.1354166666666714
        },
        {
          "name": "G4",
          "midi": 67,
          "time": 66.25,
          "velocity": 0.7874015748031497,
          "duration": 0.1354166666666714
        },
        {
          "name": "F4",
          "midi": 65,
          "time": 66.5,
          "velocity": 0.7874015748031497,
          "duration": 0.140625
        },
        {
          "name": "E4",
          "midi": 64,
          "time": 67.25,
          "velocity": 0.7874015748031497,
          "duration": 0.109375
        },
        {
          "name": "F4",
          "midi": 65,
          "time": 67.5,
          "velocity": 0.7874015748031497,
          "duration": 0.0989583333333286
        },
        {
          "name": "G4",
          "midi": 67,
          "time": 67.75,
          "velocity": 0.7874015748031497,
          "duration": 0.078125
        },
        {
          "name": "G4",
          "midi": 67,
          "time": 68,
          "velocity": 0.7874015748031497,
          "duration": 0.1770833333333286
        },
        {
          "name": "E4",
          "midi": 64,
          "time": 68.25,
          "velocity": 0.7874015748031497,
          "duration": 0.125
        },
        {
          "name": "F4",
          "midi": 65,
          "time": 68.5,
          "velocity": 0.7874015748031497,
          "duration": 0.125
        },
        {
          "name": "E4",
          "midi": 64,
          "time": 69.5,
          "velocity": 0.7874015748031497,
          "duration": 0.125
        },
        {
          "name": "G4",
          "midi": 67,
          "time": 69.75,
          "velocity": 0.7874015748031497,
          "duration": 0.1302083333333286
        },
        {
          "name": "G4",
          "midi": 67,
          "time": 70,
          "velocity": 0.7874015748031497,
          "duration": 0.1145833333333286
        },
        {
          "name": "F4",
          "midi": 65,
          "time": 70.25,
          "velocity": 0.7874015748031497,
          "duration": 0.09375
        },
        {
          "name": "E4",
          "midi": 64,
          "time": 70.5,
          "velocity": 0.7874015748031497,
          "duration": 0.1197916666666714
        },
        {
          "name": "E4",
          "midi": 64,
          "time": 71.5,
          "velocity": 0.7874015748031497,
          "duration": 0.09375
        },
        {
          "name": "E4",
          "midi": 64,
          "time": 71.625,
          "velocity": 0.7874015748031497,
          "duration": 0.09375
        },
        {
          "name": "E4",
          "midi": 64,
          "time": 71.75,
          "velocity": 0.7874015748031497,
          "duration": 0.09375
        },
        {
          "name": "G4",
          "midi": 67,
          "time": 72,
          "velocity": 0.7874015748031497,
          "duration": 0.1145833333333286
        },
        {
          "name": "E4",
          "midi": 64,
          "time": 72.25,
          "velocity": 0.7874015748031497,
          "duration": 0.09375
        },
        {
          "name": "F4",
          "midi": 65,
          "time": 72.5,
          "velocity": 0.7874015748031497,
          "duration": 0.09375
        },
        {
          "name": "E4",
          "midi": 64,
          "time": 73.25,
          "velocity": 0.7874015748031497,
          "duration": 0.0833333333333286
        },
        {
          "name": "E4",
          "midi": 64,
          "time": 73.5,
          "velocity": 0.7874015748031497,
          "duration": 0.0833333333333286
        },
        {
          "name": "E4",
          "midi": 64,
          "time": 73.625,
          "velocity": 0.7874015748031497,
          "duration": 0.0833333333333286
        },
        {
          "name": "E4",
          "midi": 64,
          "time": 73.75,
          "velocity": 0.7874015748031497,
          "duration": 0.1041666666666714
        },
        {
          "name": "F4",
          "midi": 65,
          "time": 74,
          "velocity": 0.7874015748031497,
          "duration": 0.171875
        },
        {
          "name": "G4",
          "midi": 67,
          "time": 74.25,
          "velocity": 0.7874015748031497,
          "duration": 0.203125
        },
        {
          "name": "F4",
          "midi": 65,
          "time": 74.5,
          "velocity": 0.7874015748031497,
          "duration": 0.1197916666666714
        },
        {
          "name": "E4",
          "midi": 64,
          "time": 75.25,
          "velocity": 0.7874015748031497,
          "duration": 0.0885416666666714
        },
        {
          "name": "F4",
          "midi": 65,
          "time": 75.5,
          "velocity": 0.7874015748031497,
          "duration": 0.0989583333333286
        },
        {
          "name": "G4",
          "midi": 67,
          "time": 75.75,
          "velocity": 0.7874015748031497,
          "duration": 0.1041666666666714
        },
        {
          "name": "G4",
          "midi": 67,
          "time": 76,
          "velocity": 0.7874015748031497,
          "duration": 0.1510416666666714
        },
        {
          "name": "E4",
          "midi": 64,
          "time": 76.25,
          "velocity": 0.7874015748031497,
          "duration": 0.1510416666666714
        },
        {
          "name": "F4",
          "midi": 65,
          "time": 76.5,
          "velocity": 0.7874015748031497,
          "duration": 0.171875
        },
        {
          "name": "E4",
          "midi": 64,
          "time": 77.5,
          "velocity": 0.7874015748031497,
          "duration": 0.140625
        },
        {
          "name": "G4",
          "midi": 67,
          "time": 77.75,
          "velocity": 0.7874015748031497,
          "duration": 0.140625
        },
        {
          "name": "F4",
          "midi": 65,
          "time": 78,
          "velocity": 0.7874015748031497,
          "duration": 0.171875
        },
        {
          "name": "E4",
          "midi": 64,
          "time": 78.25,
          "velocity": 0.7874015748031497,
          "duration": 0.1354166666666714
        },
        {
          "name": "F4",
          "midi": 65,
          "time": 78.5,
          "velocity": 0.7874015748031497,
          "duration": 0.15625
        },
        {
          "name": "E4",
          "midi": 64,
          "time": 79.5,
          "velocity": 0.7874015748031497,
          "duration": 0.078125
        },
        {
          "name": "E4",
          "midi": 64,
          "time": 79.625,
          "velocity": 0.7874015748031497,
          "duration": 0.09375
        },
        {
          "name": "E4",
          "midi": 64,
          "time": 79.75,
          "velocity": 0.7874015748031497,
          "duration": 0.125
        },
        {
          "name": "G4",
          "midi": 67,
          "time": 80,
          "velocity": 0.7874015748031497,
          "duration": 0.1302083333333286
        },
        {
          "name": "E4",
          "midi": 64,
          "time": 80.25,
          "velocity": 0.7874015748031497,
          "duration": 0.1302083333333286
        },
        {
          "name": "F4",
          "midi": 65,
          "time": 80.5,
          "velocity": 0.7874015748031497,
          "duration": 0.1302083333333286
        },
        {
          "name": "E4",
          "midi": 64,
          "time": 81.5,
          "velocity": 0.7874015748031497,
          "duration": 0.09375
        },
        {
          "name": "E4",
          "midi": 64,
          "time": 81.625,
          "velocity": 0.7874015748031497,
          "duration": 0.09375
        },
        {
          "name": "E4",
          "midi": 64,
          "time": 81.75,
          "velocity": 0.7874015748031497,
          "duration": 0.0729166666666714
        },
        {
          "name": "E4",
          "midi": 64,
          "time": 82,
          "velocity": 0.7874015748031497,
          "duration": 0.1354166666666714
        },
        {
          "name": "G4",
          "midi": 67,
          "time": 82.25,
          "velocity": 0.7874015748031497,
          "duration": 0.1354166666666714
        },
        {
          "name": "F4",
          "midi": 65,
          "time": 82.5,
          "velocity": 0.7874015748031497,
          "duration": 0.140625
        },
        {
          "name": "G4",
          "midi": 67,
          "time": 84,
          "velocity": 0.7874015748031497,
          "duration": 0.1770833333333286
        },
        {
          "name": "E4",
          "midi": 64,
          "time": 84.25,
          "velocity": 0.7874015748031497,
          "duration": 0.125
        },
        {
          "name": "F4",
          "midi": 65,
          "time": 84.5,
          "velocity": 0.7874015748031497,
          "duration": 0.125
        },
        {
          "name": "E4",
          "midi": 64,
          "time": 85.5,
          "velocity": 0.7874015748031497,
          "duration": 0.125
        },
        {
          "name": "G4",
          "midi": 67,
          "time": 85.75,
          "velocity": 0.7874015748031497,
          "duration": 0.1302083333333286
        },
        {
          "name": "G4",
          "midi": 67,
          "time": 86,
          "velocity": 0.7874015748031497,
          "duration": 0.1145833333333286
        },
        {
          "name": "F4",
          "midi": 65,
          "time": 86.25,
          "velocity": 0.7874015748031497,
          "duration": 0.09375
        },
        {
          "name": "E4",
          "midi": 64,
          "time": 86.5,
          "velocity": 0.7874015748031497,
          "duration": 0.1197916666666714
        },
        {
          "name": "E4",
          "midi": 64,
          "time": 87.5,
          "velocity": 0.7874015748031497,
          "duration": 0.09375
        },
        {
          "name": "E4",
          "midi": 64,
          "time": 87.625,
          "velocity": 0.7874015748031497,
          "duration": 0.09375
        },
        {
          "name": "E4",
          "midi": 64,
          "time": 87.75,
          "velocity": 0.7874015748031497,
          "duration": 0.09375
        },
        {
          "name": "G4",
          "midi": 67,
          "time": 88,
          "velocity": 0.7874015748031497,
          "duration": 0.1145833333333286
        },
        {
          "name": "E4",
          "midi": 64,
          "time": 88.25,
          "velocity": 0.7874015748031497,
          "duration": 0.09375
        },
        {
          "name": "F4",
          "midi": 65,
          "time": 88.5,
          "velocity": 0.7874015748031497,
          "duration": 0.09375
        },
        {
          "name": "E4",
          "midi": 64,
          "time": 89.25,
          "velocity": 0.7874015748031497,
          "duration": 0.0833333333333286
        },
        {
          "name": "E4",
          "midi": 64,
          "time": 89.5,
          "velocity": 0.7874015748031497,
          "duration": 0.0833333333333286
        },
        {
          "name": "E4",
          "midi": 64,
          "time": 89.625,
          "velocity": 0.7874015748031497,
          "duration": 0.0833333333333286
        },
        {
          "name": "E4",
          "midi": 64,
          "time": 89.75,
          "velocity": 0.7874015748031497,
          "duration": 0.1041666666666714
        },
        {
          "name": "F4",
          "midi": 65,
          "time": 90,
          "velocity": 0.7874015748031497,
          "duration": 0.171875
        },
        {
          "name": "G4",
          "midi": 67,
          "time": 90.25,
          "velocity": 0.7874015748031497,
          "duration": 0.203125
        },
        {
          "name": "F4",
          "midi": 65,
          "time": 90.5,
          "velocity": 0.7874015748031497,
          "duration": 0.1197916666666714
        },
        {
          "name": "E4",
          "midi": 64,
          "time": 92.5,
          "velocity": 0.7874015748031497,
          "duration": 0.09375
        },
        {
          "name": "E4",
          "midi": 64,
          "time": 92.75,
          "velocity": 0.7874015748031497,
          "duration": 0.0833333333333286
        },
        {
          "name": "E4",
          "midi": 64,
          "time": 93,
          "velocity": 0.7874015748031497,
          "duration": 0.140625
        },
        {
          "name": "E4",
          "midi": 64,
          "time": 93.25,
          "velocity": 0.7874015748031497,
          "duration": 0.21875
        },
        {
          "name": "E4",
          "midi": 64,
          "time": 93.75,
          "velocity": 0.7874015748031497,
          "duration": 0.2760416666666714
        },
        {
          "name": "E4",
          "midi": 64,
          "time": 94.25,
          "velocity": 0.7874015748031497,
          "duration": 0.0677083333333286
        },
        {
          "name": "E4",
          "midi": 64,
          "time": 94.5,
          "velocity": 0.7874015748031497,
          "duration": 0.3125
        },
        {
          "name": "G4",
          "midi": 67,
          "time": 95,
          "velocity": 0.7874015748031497,
          "duration": 0.2760416666666714
        },
        {
          "name": "F4",
          "midi": 65,
          "time": 95.25,
          "velocity": 0.7874015748031497,
          "duration": 0.2552083333333286
        },
        {
          "name": "E4",
          "midi": 64,
          "time": 95.5,
          "velocity": 0.7874015748031497,
          "duration": 0.09375
        },
        {
          "name": "E4",
          "midi": 64,
          "time": 95.75,
          "velocity": 0.7874015748031497,
          "duration": 0.2864583333333286
        },
        {
          "name": "E4",
          "midi": 64,
          "time": 96.25,
          "velocity": 0.7874015748031497,
          "duration": 0.0833333333333286
        },
        {
          "name": "E4",
          "midi": 64,
          "time": 96.5,
          "velocity": 0.7874015748031497,
          "duration": 0.2239583333333286
        },
        {
          "name": "E4",
          "midi": 64,
          "time": 97,
          "velocity": 0.7874015748031497,
          "duration": 0.3072916666666714
        },
        {
          "name": "E4",
          "midi": 64,
          "time": 97.5,
          "velocity": 0.7874015748031497,
          "duration": 0.057291666666671404
        },
        {
          "name": "E4",
          "midi": 64,
          "time": 97.75,
          "velocity": 0.7874015748031497,
          "duration": 0.328125
        },
        {
          "name": "E4",
          "midi": 64,
          "time": 98.25,
          "velocity": 0.7874015748031497,
          "duration": 0.328125
        },
        {
          "name": "E4",
          "midi": 64,
          "time": 98.75,
          "velocity": 0.7874015748031497,
          "duration": 0.359375
        },
        {
          "name": "E4",
          "midi": 64,
          "time": 100.5,
          "velocity": 0.7874015748031497,
          "duration": 0.0625
        },
        {
          "name": "E4",
          "midi": 64,
          "time": 100.75,
          "velocity": 0.7874015748031497,
          "duration": 0.0989583333333286
        },
        {
          "name": "E4",
          "midi": 64,
          "time": 101,
          "velocity": 0.7874015748031497,
          "duration": 0.0833333333333286
        },
        {
          "name": "E4",
          "midi": 64,
          "time": 101.25,
          "velocity": 0.7874015748031497,
          "duration": 0.3385416666666714
        },
        {
          "name": "G4",
          "midi": 67,
          "time": 101.75,
          "velocity": 0.7874015748031497,
          "duration": 0.265625
        },
        {
          "name": "F4",
          "midi": 65,
          "time": 102.25,
          "velocity": 0.7874015748031497,
          "duration": 0.1875
        },
        {
          "name": "E4",
          "midi": 64,
          "time": 102.5,
          "velocity": 0.7874015748031497,
          "duration": 0.296875
        },
        {
          "name": "G4",
          "midi": 67,
          "time": 103,
          "velocity": 0.7874015748031497,
          "duration": 0.2447916666666714
        },
        {
          "name": "F4",
          "midi": 65,
          "time": 103.25,
          "velocity": 0.7874015748031497,
          "duration": 0.2291666666666714
        },
        {
          "name": "E4",
          "midi": 64,
          "time": 103.5,
          "velocity": 0.7874015748031497,
          "duration": 0.09375
        },
        {
          "name": "E4",
          "midi": 64,
          "time": 103.75,
          "velocity": 0.7874015748031497,
          "duration": 0.2239583333333286
        },
        {
          "name": "E4",
          "midi": 64,
          "time": 104.25,
          "velocity": 0.7874015748031497,
          "duration": 0.1770833333333286
        },
        {
          "name": "E4",
          "midi": 64,
          "time": 104.5,
          "velocity": 0.7874015748031497,
          "duration": 0.2864583333333286
        },
        {
          "name": "E4",
          "midi": 64,
          "time": 105.25,
          "velocity": 0.7874015748031497,
          "duration": 0.0833333333333286
        },
        {
          "name": "E4",
          "midi": 64,
          "time": 105.5,
          "velocity": 0.7874015748031497,
          "duration": 0.0833333333333286
        },
        {
          "name": "E4",
          "midi": 64,
          "time": 105.75,
          "velocity": 0.7874015748031497,
          "duration": 0.1041666666666714
        },
        {
          "name": "F4",
          "midi": 65,
          "time": 106,
          "velocity": 0.7874015748031497,
          "duration": 0.171875
        },
        {
          "name": "G4",
          "midi": 67,
          "time": 106.25,
          "velocity": 0.7874015748031497,
          "duration": 0.203125
        },
        {
          "name": "F4",
          "midi": 65,
          "time": 106.5,
          "velocity": 0.7874015748031497,
          "duration": 0.171875
        },
        {
          "name": "G4",
          "midi": 67,
          "time": 106.75,
          "velocity": 0.7874015748031497,
          "duration": 0.203125
        },
        {
          "name": "F4",
          "midi": 65,
          "time": 107,
          "velocity": 0.7874015748031497,
          "duration": 0.171875
        },
        {
          "name": "G4",
          "midi": 67,
          "time": 107.25,
          "velocity": 0.7874015748031497,
          "duration": 0.203125
        },
        {
          "name": "E4",
          "midi": 64,
          "time": 108,
          "velocity": 0.7874015748031497,
          "duration": 0.1197916666666714
        },
        {
          "name": "E4",
          "midi": 64,
          "time": 108.5,
          "velocity": 0.7874015748031497,
          "duration": 0.1354166666666714
        },
        {
          "name": "E4",
          "midi": 64,
          "time": 109,
          "velocity": 0.7874015748031497,
          "duration": 0.1458333333333286
        },
        {
          "name": "E4",
          "midi": 64,
          "time": 109.5,
          "velocity": 0.7874015748031497,
          "duration": 0.1666666666666714
        },
        {
          "name": "G4",
          "midi": 67,
          "time": 110,
          "velocity": 0.7874015748031497,
          "duration": 0.140625
        },
        {
          "name": "G4",
          "midi": 67,
          "time": 110.5,
          "velocity": 0.7874015748031497,
          "duration": 0.1302083333333286
        },
        {
          "name": "G4",
          "midi": 67,
          "time": 111,
          "velocity": 0.7874015748031497,
          "duration": 0.1302083333333286
        },
        {
          "name": "G4",
          "midi": 67,
          "time": 111.5,
          "velocity": 0.7874015748031497,
          "duration": 0.1302083333333286
        },
        {
          "name": "F4",
          "midi": 65,
          "time": 112,
          "velocity": 0.7874015748031497,
          "duration": 0.1302083333333286
        },
        {
          "name": "F4",
          "midi": 65,
          "time": 112.5,
          "velocity": 0.7874015748031497,
          "duration": 0.1197916666666714
        },
        {
          "name": "F4",
          "midi": 65,
          "time": 113,
          "velocity": 0.7874015748031497,
          "duration": 0.1354166666666714
        },
        {
          "name": "F4",
          "midi": 65,
          "time": 113.5,
          "velocity": 0.7874015748031497,
          "duration": 0.140625
        },
        {
          "name": "E4",
          "midi": 64,
          "time": 114,
          "velocity": 0.7874015748031497,
          "duration": 0.1927083333333286
        },
        {
          "name": "G4",
          "midi": 67,
          "time": 114.25,
          "velocity": 0.7874015748031497,
          "duration": 0.203125
        },
        {
          "name": "E4",
          "midi": 64,
          "time": 114.5,
          "velocity": 0.7874015748031497,
          "duration": 0.25
        },
        {
          "name": "G4",
          "midi": 67,
          "time": 114.75,
          "velocity": 0.7874015748031497,
          "duration": 0.1770833333333286
        },
        {
          "name": "E4",
          "midi": 64,
          "time": 115,
          "velocity": 0.7874015748031497,
          "duration": 0.1979166666666714
        },
        {
          "name": "E4",
          "midi": 64,
          "time": 116,
          "velocity": 0.7874015748031497,
          "duration": 0.109375
        },
        {
          "name": "E4",
          "midi": 64,
          "time": 116.5,
          "velocity": 0.7874015748031497,
          "duration": 0.1145833333333286
        },
        {
          "name": "E4",
          "midi": 64,
          "time": 117,
          "velocity": 0.7874015748031497,
          "duration": 0.1302083333333286
        },
        {
          "name": "E4",
          "midi": 64,
          "time": 117.5,
          "velocity": 0.7874015748031497,
          "duration": 0.1302083333333286
        },
        {
          "name": "G4",
          "midi": 67,
          "time": 118,
          "velocity": 0.7874015748031497,
          "duration": 0.140625
        },
        {
          "name": "E4",
          "midi": 64,
          "time": 118.25,
          "velocity": 0.7874015748031497,
          "duration": 0.140625
        },
        {
          "name": "G4",
          "midi": 67,
          "time": 118.5,
          "velocity": 0.7874015748031497,
          "duration": 0.140625
        },
        {
          "name": "E4",
          "midi": 64,
          "time": 118.75,
          "velocity": 0.7874015748031497,
          "duration": 0.140625
        },
        {
          "name": "G4",
          "midi": 67,
          "time": 119,
          "velocity": 0.7874015748031497,
          "duration": 0.140625
        },
        {
          "name": "E4",
          "midi": 64,
          "time": 119.25,
          "velocity": 0.7874015748031497,
          "duration": 0.140625
        },
        {
          "name": "G4",
          "midi": 67,
          "time": 119.5,
          "velocity": 0.7874015748031497,
          "duration": 0.140625
        },
        {
          "name": "E4",
          "midi": 64,
          "time": 119.75,
          "velocity": 0.7874015748031497,
          "duration": 0.140625
        },
        {
          "name": "F4",
          "midi": 65,
          "time": 120,
          "velocity": 0.7874015748031497,
          "duration": 0.1458333333333286
        },
        {
          "name": "E4",
          "midi": 64,
          "time": 120.24479166666666,
          "velocity": 0.7874015748031497,
          "duration": 0.1458333333333286
        },
        {
          "name": "F4",
          "midi": 65,
          "time": 120.49999999999999,
          "velocity": 0.7874015748031497,
          "duration": 0.1458333333333286
        },
        {
          "name": "E4",
          "midi": 64,
          "time": 120.74479166666664,
          "velocity": 0.7874015748031497,
          "duration": 0.1458333333333286
        },
        {
          "name": "F4",
          "midi": 65,
          "time": 120.99999999999997,
          "velocity": 0.7874015748031497,
          "duration": 0.1458333333333286
        },
        {
          "name": "E4",
          "midi": 64,
          "time": 121.24479166666663,
          "velocity": 0.7874015748031497,
          "duration": 0.1458333333333286
        },
        {
          "name": "F4",
          "midi": 65,
          "time": 121.49999999999996,
          "velocity": 0.7874015748031497,
          "duration": 0.1458333333333286
        },
        {
          "name": "E4",
          "midi": 64,
          "time": 121.74479166666661,
          "velocity": 0.7874015748031497,
          "duration": 0.1458333333333286
        },
        {
          "name": "E4",
          "midi": 64,
          "time": 121.99999999999994,
          "velocity": 0.7874015748031497,
          "duration": 0.2239583333333286
        },
        {
          "name": "G4",
          "midi": 67,
          "time": 122.24999999999994,
          "velocity": 0.7874015748031497,
          "duration": 0.2083333333333286
        },
        {
          "name": "E4",
          "midi": 64,
          "time": 122.49999999999994,
          "velocity": 0.7874015748031497,
          "duration": 0.2552083333333286
        },
        {
          "name": "G4",
          "midi": 67,
          "time": 122.74999999999994,
          "velocity": 0.7874015748031497,
          "duration": 0.2083333333333286
        }
      ],
      "controlChanges": {},
      "id": 0,
      "name": "MIDI 2",
      "channelNumber": 0,
      "isPercussion": false
    }
  ]
}